<?xml version="1.0" standalone="no"?>
<!DOCTYPE svg PUBLIC "-//W3C//DTD SVG 20010904//EN"
 "http://www.w3.org/TR/2001/REC-SVG-20010904/DTD/svg10.dtd">
<svg version="1.0" xmlns="http://www.w3.org/2000/svg"
 width="250.000000pt" height="250.000000pt" viewBox="0 0 250.000000 250.000000"
 preserveAspectRatio="xMidYMid meet">
<metadata>
Created by potrace 1.14, written by Peter Selinger 2001-2017
</metadata>
<g transform="translate(0.000000,250.000000) scale(0.100000,-0.100000)"
fill="#000000" stroke="none">
<path d="M1079 2423 c-142 -20 -398 -116 -395 -148 0 -5 15 -20 34 -32 33 -23
33 -23 70 -4 244 123 557 139 819 41 409 -153 687 -556 677 -982 -1 -72 -12
-189 -19 -208 -1 -3 -6 -20 -10 -37 -9 -40 -16 -41 -53 -7 l-28 27 14 71 c21
111 11 308 -23 421 -62 212 -174 375 -348 506 -282 213 -672 250 -989 94 -38
-19 -74 -35 -79 -35 -5 0 -31 16 -58 35 -101 73 -200 84 -299 34 -91 -45 -127
-87 -192 -224 -91 -191 -110 -246 -110 -315 0 -114 57 -237 149 -322 46 -43
49 -49 55 -108 25 -254 136 -474 324 -642 38 -34 43 -46 17 -43 -48 6 -79 21
-101 50 -14 18 -43 40 -64 49 -61 24 -149 164 -205 326 -27 76 -55 205 -55
252 0 27 -9 43 -45 78 -25 24 -45 40 -46 35 -17 -162 58 -452 157 -605 35 -55
51 -81 60 -97 9 -19 -48 -73 -88 -82 -42 -10 -92 8 -123 43 -30 33 -67 56 -91
56 -22 0 -22 -2 -15 -76 1 -6 14 -14 30 -17 15 -3 46 -24 67 -47 67 -71 137
-71 210 1 36 35 50 43 92 47 48 4 52 3 99 -40 83 -77 144 -80 217 -11 77 74
124 74 207 -1 46 -41 56 -46 100 -46 45 0 54 4 104 50 48 44 61 50 99 50 42 0
89 -24 109 -57 11 -17 56 -40 87 -44 39 -4 72 10 115 51 22 22 51 43 65 47 39
14 87 1 122 -32 52 -50 81 -65 125 -65 36 0 50 7 98 49 30 27 66 51 80 53 35
7 92 -16 117 -47 12 -15 39 -35 61 -45 53 -24 99 -12 152 40 23 22 55 44 71
49 26 7 29 12 31 49 3 38 0 42 -20 42 -26 0 -47 -13 -100 -64 -31 -29 -46 -36
-78 -36 -48 0 -90 20 -112 54 -16 24 -15 27 19 78 187 277 239 640 137 962
-168 532 -691 859 -1244 779z m-591 -513 c9 -1 -3 -27 -37 -74 -21 -31 -44
-69 -51 -86 -7 -16 -15 -30 -19 -30 -8 0 -51 150 -51 179 0 23 2 23 78 18 42
-3 78 -6 80 -7z m1712 -1011 c-53 -123 -125 -229 -169 -250 -18 -8 -47 -29
-65 -46 -39 -38 -68 -53 -101 -53 -25 0 -22 5 46 73 83 82 103 105 131 154 11
18 24 30 29 27 5 -3 12 2 15 10 3 9 10 13 15 10 5 -3 9 7 9 21 0 16 4 24 11
19 8 -4 8 -1 1 13 -8 14 -7 27 2 44 7 14 16 37 19 51 7 28 41 32 59 7 8 -11 9
-10 4 4 -3 11 -2 16 4 12 6 -3 10 -1 10 6 0 9 3 10 10 3 8 -8 -2 -40 -30 -105z"/>
<path d="M10 475 c0 -3 17 -12 38 -20 20 -9 53 -31 72 -49 49 -47 73 -57 117
-50 26 4 53 20 84 49 25 23 60 46 77 50 43 9 96 -10 125 -45 33 -38 75 -58
118 -56 36 3 99 39 99 56 0 16 49 43 86 47 41 4 65 -7 120 -57 23 -21 55 -41
72 -44 39 -9 95 14 127 52 55 66 129 66 199 2 23 -22 55 -44 70 -50 50 -18
106 2 144 53 23 31 72 50 114 44 28 -4 52 -18 88 -51 27 -25 59 -47 72 -48 13
0 30 -2 38 -3 23 -2 72 25 93 52 38 47 104 66 150 42 12 -7 41 -29 64 -50 24
-22 49 -40 58 -40 8 -1 25 -2 38 -3 30 -3 65 16 110 59 21 19 51 38 67 42 17
3 30 9 30 14 0 5 -10 7 -22 5 -13 -3 -26 -5 -30 -5 -4 -1 -30 -21 -58 -46 -28
-25 -54 -45 -58 -46 -4 0 -16 -2 -27 -4 -34 -7 -80 14 -120 55 -64 66 -127 66
-198 1 -52 -47 -75 -59 -107 -56 -14 1 -31 3 -38 4 -7 0 -34 21 -61 46 -78 73
-129 73 -210 1 -80 -71 -127 -70 -208 4 -23 22 -46 41 -50 41 -70 12 -109 0
-153 -46 -41 -42 -96 -60 -136 -45 -15 6 -47 29 -70 50 -46 42 -75 54 -116 46
-39 -7 -62 -21 -89 -56 -29 -36 -77 -54 -120 -45 -17 4 -53 27 -80 50 -79 71
-132 70 -214 -6 -69 -64 -132 -62 -195 6 -14 15 -37 33 -52 41 -27 14 -58 19
-58 9z"/>
<path d="M32 206 c2 -58 7 -95 13 -94 6 2 11 19 11 38 1 19 2 39 3 45 0 5 17
-14 36 -43 33 -48 55 -65 55 -43 0 5 -16 30 -35 55 l-34 45 22 28 c51 63 51
63 35 63 -9 0 -28 -18 -43 -40 -31 -45 -37 -45 -39 1 -1 18 -7 34 -14 37 -10
3 -12 -18 -10 -92z"/>
<path d="M277 293 c-2 -5 -4 -47 -3 -96 1 -121 20 -117 24 6 1 57 -2 97 -7 97
-6 0 -12 -3 -14 -7z"/>
<path d="M415 291 c-3 -5 9 -11 26 -13 l31 -3 2 -82 c1 -105 20 -115 23 -13 2
99 2 100 11 99 24 -4 52 2 47 11 -8 13 -132 13 -140 1z"/>
<path d="M672 203 l3 -98 43 0 c47 -1 77 10 52 19 -8 3 -24 5 -35 4 -38 -2
-43 2 -41 35 1 29 4 32 34 32 19 0 32 5 32 13 0 8 -9 11 -25 8 -27 -5 -39 7
-41 42 -1 18 4 23 20 21 38 -3 56 1 56 11 0 6 -23 10 -50 10 l-51 0 3 -97z"/>
<path d="M907 285 c-9 -8 -14 -25 -12 -38 4 -21 13 -30 65 -67 40 -28 3 -68
-45 -50 -20 7 -25 6 -25 -5 0 -8 6 -15 13 -16 6 0 23 -2 36 -5 27 -5 56 17 64
48 6 20 -14 44 -64 79 -34 23 -19 54 22 45 22 -4 29 -2 27 7 -7 18 -63 20 -81
2z"/>
<path d="M1131 215 c4 -91 11 -104 62 -112 20 -3 58 14 69 31 13 19 9 168 -4
164 -7 -3 -12 -31 -13 -77 0 -60 -4 -76 -20 -87 -23 -17 -27 -17 -50 0 -15 11
-19 28 -20 87 -1 49 -6 74 -14 77 -10 3 -12 -16 -10 -83z"/>
<path d="M1409 253 c-2 -118 -1 -145 5 -150 11 -11 16 3 18 45 1 32 5 42 18
42 22 0 36 -17 45 -52 7 -27 35 -47 35 -25 0 7 -8 29 -19 50 -16 31 -16 38 -5
48 8 6 14 24 14 40 0 34 -23 49 -74 49 l-36 0 -1 -47z m81 8 c7 -15 6 -24 -6
-36 -26 -25 -49 -15 -50 23 0 27 3 32 23 32 12 0 27 -9 33 -19z"/>
<path d="M1659 253 c0 -27 -2 -64 -3 -83 -3 -37 10 -74 22 -66 4 2 7 23 5 45
-2 40 -1 41 32 41 47 0 54 18 8 22 -35 3 -38 6 -38 33 0 27 3 30 38 33 51 4
36 22 -19 22 l-44 0 -1 -47z"/>
<path d="M1887 293 c-2 -5 -3 -47 -3 -96 1 -119 20 -113 24 8 2 57 -1 95 -7
95 -5 0 -12 -3 -14 -7z"/>
<path d="M2054 288 c-12 -19 -11 -150 1 -173 8 -16 11 -2 15 64 l5 83 34 -67
c64 -125 81 -122 81 11 0 72 -3 95 -12 91 -9 -2 -13 -26 -13 -75 1 -39 -2 -69
-5 -66 -3 3 -21 35 -41 72 -37 68 -52 82 -65 60z"/>
<path d="M2353 285 c-39 -27 -48 -91 -21 -143 15 -29 74 -47 111 -33 24 9 27
16 27 56 l0 45 -41 0 c-24 0 -38 -4 -34 -10 3 -5 14 -10 24 -10 24 0 33 -36
14 -56 -18 -18 -51 -10 -76 19 -22 25 -18 79 9 108 18 21 69 26 80 8 4 -8 9
-8 18 1 28 28 -72 42 -111 15z"/>
</g>
</svg>
